<svg width="64px" height="64px" viewBox="0 0 64 64" xmlns="http://www.w3.org/2000/svg" fill="none" stroke="#000000" stroke-width="1.92">
    <g id="SVGRepo_bgCarrier" stroke-width="0"></g>
    <g id="SVGRepo_tracerCarrier" stroke-linecap="round" stroke-linejoin="round"></g>
    <g id="SVGRepo_iconCarrier">
        <polyline points="44 8 44 16 52 16"></polyline>
        <polygon points="52 16 44 8 12 8 12 56 52 56 52 16"></polygon>
        <path d="M44 24v16c0 2.21-5.37 4-12 4s-12-1.79-12-4V24c0-2.21 5.37-4 12-4s12 1.79 12 4z"></path>
        <path d="M44 24c0 2.21-5.37 4-12 4s-12-1.79-12-4"></path>
        <path d="M44 32c0 2.21-5.37 4-12 4s-12-1.79-12-4"></path>
    </g>
</svg>

